# AST/ASF file generated using VICON BodyLanguage
# -----------------------------------------------
:version 1.10
:name VICON
:units
  mass 1.0
  length 0.45
  angle deg
:documentation
   .ast/.asf automatically generated from VICON data using
   VICON BodyBuilder and BodyLanguage model FoxedUp or BRILLIANT.MOD
:root
   order TX TY TZ RX RY RZ
   axis XYZ
   position 0 0 0  
   orientation 0 0 0 
:bonedata
  begin
     id 1 
     name lhipjoint
     direction 0.707368 -0.647095 0.284426 
     length 2.60678 
     axis 0 0 0  XYZ
  end
  begin
     id 2 
     name lfemur
     direction 0.34202 -0.939693 0  
     length 6.63812  
     axis 0 0 20  XYZ
    dof rx ry rz
    limits (-160.0 20.0)
           (-70.0 70.0)
           (-60.0 70.0)
  end
  begin
     id 3 
     name ltibia
     direction 0.34202 -0.939693 0   
     length 7.51178   
     axis 0 0 20   XYZ
    dof rx
    limits (-10.0 170.0)
  end
  begin
     id 4 
     name lfoot
     direction 0.121251 -0.333133 0.935051   
     length 1.83716   
     axis -90 7.62852e-016 20   XYZ
    dof rx rz
    limits (-45.0 90.0)
           (-70.0 20.0)
  end
  begin
     id 5 
     name ltoes
     direction 1.53611e-011 -4.21962e-011 1   
     length 0.916133   
     axis -90 7.62852e-016 20   XYZ
    dof rx
    limits (-90.0 20.0)
  end
  begin
     id 6 
     name rhipjoint
     direction -0.692419 -0.660507 0.290321   
     length 2.55385  
     axis 0 0 0  XYZ 
  end
  begin
     id 7 
     name rfemur
     direction -0.34202 -0.939693 0   
     length 7.29079   
     axis 0 0 -20   XYZ
    dof rx ry rz
    limits (-160.0 20.0)
           (-70.0 70.0)
           (-70.0 60.0)
  end
  begin
     id 8 
     name rtibia
     direction -0.34202 -0.939693 0   
     length 7.47143   
     axis 0 0 -20   XYZ
    dof rx
    limits (-10.0 170.0)
 end
 begin
     id 9 
     name rfoot
     direction -0.119907 -0.329441 0.936532   
     length 1.79439  
     axis -90 -7.62852e-016 -20   XYZ
    dof rx rz
    limits (-45.0 90.0)
           (-20.0 70.0)
  end
  begin
     id 10 
     name rtoes
     direction -1.53571e-011 -4.21961e-011 1   
     length 0.896039   
     axis -90 -7.62852e-016 -20   XYZ
    dof rx
    limits (-90.0 20.0)
  end
  begin
     id 11 
     name lowerback
     direction 0.0367721 0.992912 -0.113016   
     length 1.73542   
     axis 0 0 0   XYZ
    dof rx ry rz
    limits (-20.0 45.0)
           (-30.0 30.0)
           (-30.0 30.0)
  end
  begin
     id 12 
     name upperback
     direction -0.000314626 0.990678 0.136227   
     length 1.7514   
     axis 0 0 0   XYZ
    dof rx ry rz
    limits (-20.0 45.0)
           (-30.0 30.0)
           (-30.0 30.0)
  end
  begin
     id 13 
     name thorax
     direction -0.0226159 0.981151 0.191917   
     length 1.71471   
     axis 0 0 0   XYZ
    dof rx ry rz
    limits (-20.0 45.0)
           (-30.0 30.0)
           (-30.0 30.0)
  end
  begin
     id 14 
     name lowerneck
     direction 0.0219333 0.998071 0.0580739   
     length 1.65882   
     axis 0 0 0   XYZ
    dof rx ry rz
    limits (-20.0 45.0)
           (-30.0 30.0)
           (-30.0 30.0)
  end
  begin
     id 15 
     name upperneck
     direction 0.0384529 0.980058 -0.194957   
     length 1.6612   
     axis 0 0 0   XYZ
    dof rx ry rz
    limits (-20.0 45.0)
           (-30.0 30.0)
           (-30.0 30.0)
  end
  begin
     id 16
     name head
     direction 0.00592123 0.997421 -0.0715234  
     length 1.68077  
     axis 0 0 0   XYZ
    dof rx ry rz
    limits (-20.0 45.0)
           (-30.0 30.0)
           (-30.0 30.0)
  end
  begin
     id 17 
     name lclavicle
     direction 0.904803 0.417826 0.0821728  
     length 3.42227  
     axis 0 0 0   XYZ
    dof ry rz
    limits (-20.0 10.0)
           (0.0 20.0)
  end
  begin
     id 18 
     name lhumerus
     direction 1 -4.48965e-011 -2.68786e-027   
     length 5.11878   
     axis -180 -30 -90   XYZ
    dof rx ry rz
    limits (-60.0 90.0)
           (-90.0 90.0)
           (-90.0 90.0)
  end
  begin
     id 19
     name lradius
     direction 1 -4.48965e-011 2.61168e-028   
     length 3.59971   
     axis -180 -30 -90   XYZ
    dof rx
    limits (-10.0 170.0)
  end
  begin
     id 20
     name lwrist
     direction 1 -4.48965e-011 1.58672e-027   
     length 1.79985   
     axis -1.65735e-015 90 90   XYZ
    dof ry
    limits (-180.0 0.0)
 end
  begin
     id 21 
     name lhand
     direction 1 -4.48942e-011 3.17344e-027   
     length 0.62877   
     axis -2.02492e-015 90 90   XYZ
    dof rx rz
    limits (-90.0 90.0)
           (-45.0 45.0)
  end
  begin
     id 22 
     name lfingers
     direction 1 -4.49011e-011 6.34687e-027   
     length 0.506931   
     axis -4.04985e-015 90 90   XYZ
    dof rx
    limits (0.0 90.0)
  end
  begin
     id 23
     name lthumb
     direction 0.707107 -6.34982e-011 0.707107   
     length 0.727854   
     axis -90 45 2.85299e-015   XYZ
    dof rx rz
    limits (-45.0 45.0)
           (-45.0 45.0)
  end
  begin
     id 24 
     name rclavicle
     direction -0.945647 0.32488 0.0143075   
     length 3.52737  
     axis 0 0 0   XYZ 
    dof ry rz
    limits (-10.0 20.0)
           (-20.0 0.0)
  end
  begin
     id 25 
     name rhumerus
     direction -1 -4.48962e-011 1.92182e-027  
     length 5.4902   
     axis -180 30 90   XYZ
    dof rx ry rz
    limits (-90.0 60.0)
           (-90.0 90.0)
           (-90.0 90.0)
  end
  begin
     id 26 
     name rradius
     direction -1 -4.48967e-011 -5.97193e-028   
     length 3.20659   
     axis -180 30 90   XYZ
    dof rx
    limits (-10.0 170.0)
  end
  begin
     id 27 
     name rwrist
     direction -1 -4.48964e-011 1.58672e-027   
     length 1.6033   
     axis -1.65735e-015 -90 -90   XYZ
    dof ry
    limits (-180.0 0.0)
  end
  begin
     id 28
     name rhand
     direction -1 -4.49006e-011 3.17344e-027   
     length 0.691885   
     axis -2.02492e-015 -90 -90   XYZ
    dof rx rz
    limits (-90.0 90.0)
           (-45.0 45.0)
  end
  begin
     id 29
     name rfingers
     direction -1 -4.48908e-011 6.34687e-027   
     length 0.557815   
     axis -4.04985e-015 -90 -90   XYZ
    dof rx
    limits (0.0 90.0)
  end
  begin
     id 30
     name rthumb
     direction -0.707107 -6.34999e-011 0.707107   
     length 0.800915   
     axis -90 -45 -2.85299e-015   XYZ
    dof rx rz
    limits (-45.0 45.0)
           (-45.0 45.0)
  end
:hierarchy
  begin
    root lhipjoint rhipjoint lowerback
    lhipjoint lfemur
    lfemur ltibia
    ltibia lfoot
    lfoot ltoes
    rhipjoint rfemur
    rfemur rtibia
    rtibia rfoot
    rfoot rtoes
    lowerback upperback
    upperback thorax
    thorax lowerneck lclavicle rclavicle
    lowerneck upperneck
    upperneck head
    lclavicle lhumerus
    lhumerus lradius
    lradius lwrist
    lwrist lhand lthumb
    lhand lfingers
    rclavicle rhumerus
    rhumerus rradius
    rradius rwrist
    rwrist rhand rthumb
    rhand rfingers
  end

#!OML:ASF I:\Actors\actors\Patient Classification 1\Patient 1\Session 1\Subject1.ASF
:FULLY-SPECIFIED
:DEGREES
97
root 0.165929 17.4993 8.4951 11.2681 -0.0468256 -9.90951
lowerback -3.36183 -0.331507 5.66
upperback -10.4133 -0.119299 3.07423
thorax -9.15562 -0.374508 0.118412
lowerneck -0.606858 -15.0958 -14.1173
upperneck 24.4909 -23.1488 10.8919
head 10.969 -11.2396 3.37978
rclavicle 9.69075e-015 -1.74931e-014
rhumerus -52.9479 -40.4776 -51.0052
rradius 24.0716
rwrist 45.2751
rhand 12.5679 -30.6727
rfingers 7.12502
rthumb 37.5577 -56.591
lclavicle 9.69075e-015 -1.74931e-014
lhumerus -57.4768 38.2004 52.9081
lradius 26.0198
lwrist -20.9595
lhand -9.62269 -10.8961
lfingers 7.12502
lthumb 16.347 18.4349
rfemur -4.04774 28.2171 25.3353
rtibia 0.410654
rfoot -14.048 -32.7391
rtoes 8.75025
lfemur 2.83074 -48.1522 -8.78372
ltibia -5.46926
lfoot -27.5587 58.2018
ltoes 19.4375
98
root 0.166448 17.4993 8.49613 11.2488 -0.0298617 -9.91243
lowerback -3.34957 -0.349982 5.65861
upperback -10.4093 -0.142462 3.08796
thorax -9.1593 -0.385163 0.134948
lowerneck -0.599107 -15.0743 -14.1163
upperneck 24.4788 -23.1162 10.8918
head 10.9578 -11.2255 3.38637
rclavicle 8.64713e-015 -1.72943e-014
rhumerus -52.9135 -40.444 -51.03
rradius 24.0623
rwrist 45.2687
rhand 12.6715 -30.5839
rfingers 7.12502
rthumb 37.6555 -56.476
lclavicle 8.64713e-015 -1.72943e-014
lhumerus -57.5126 38.2475 52.884
lradius 26.0211
lwrist -20.9834
lhand -9.59428 -10.8296
lfingers 7.12502
lthumb 16.3743 18.4992
rfemur -4.01337 28.193 25.3573
rtibia 0.402704
rfoot -14.0316 -32.7541
rtoes 8.48704
lfemur 2.84483 -48.1159 -8.78816
ltibia -5.4824
lfoot -27.2605 58.2117
ltoes 19.1522
99
root 0.166179 17.4999 8.4973 11.2284 -0.0510202 -9.91357
lowerback -3.33463 -0.347663 5.63871
upperback -10.4063 -0.138245 3.095
thorax -9.16404 -0.381126 0.153343
lowerneck -0.578593 -15.0514 -14.1026
upperneck 24.4825 -23.0847 10.8859
head 10.948 -11.2117 3.39025
rclavicle -2.09718e-014 9.74045e-015
rhumerus -52.9018 -40.3997 -51.0553
rradius 24.0684
rwrist 45.2238
rhand 12.6768 -30.553
rfingers 7.12502
rthumb 37.6606 -56.4438
lclavicle -2.09718e-014 9.74045e-015
lhumerus -57.5129 38.2452 52.9051
lradius 26.0146
lwrist -21.0477
lhand -9.56746 -10.8566
lfingers 7.12502
lthumb 16.4001 18.4701
rfemur -3.97479 28.1903 25.3774
rtibia 0.390885
rfoot -14.0048 -32.757
rtoes 8.31788
lfemur 2.90926 -48.1711 -8.84531
ltibia -5.45828
lfoot -27.3763 58.2317
ltoes 19.2163
100
root 0.166597 17.5004 8.49753 11.2099 -0.0775589 -9.90201
lowerback -3.3118 -0.329179 5.62841
upperback -10.4045 -0.113189 3.07451
thorax -9.17412 -0.369073 0.136269
lowerneck -0.620385 -15.0514 -14.0455
upperneck 24.5807 -23.0803 10.8167
head 10.9752 -11.2068 3.35548
rclavicle -8.24956e-015 5.96354e-015
rhumerus -52.9425 -40.3993 -51.0468
rradius 24.0843
rwrist 45.1894
rhand 12.6609 -30.5548
rfingers 7.12502
rthumb 37.6455 -56.4496
lclavicle -8.24956e-015 5.96354e-015
lhumerus -57.6213 38.3439 52.6632
lradius 25.9019
lwrist -21.567
lhand -9.21086 -11.4347
lfingers 7.12502
lthumb 16.7435 17.8632
rfemur -3.95197 28.1803 25.3659
rtibia 0.382649
rfoot -13.9997 -32.7184
rtoes 8.42468
lfemur 2.95579 -48.1959 -8.91338
ltibia -5.42092
lfoot -27.7085 58.1942
ltoes 19.5307
101
root 0.167198 17.5 8.49719 11.2056 -0.0553696 -9.91012
lowerback -3.30135 -0.32757 5.64747
upperback -10.3979 -0.110607 3.06586
thorax -9.17315 -0.369679 0.116353
lowerneck -0.647438 -15.0462 -14.0363
upperneck 24.6012 -23.0767 10.8287
head 10.9879 -11.2014 3.35645
rclavicle 3.23025e-015 3.73715e-014
rhumerus -52.9494 -40.4214 -51.0439
rradius 24.0917
rwrist 45.1836
rhand 12.5897 -30.5171
rfingers 7.12502
rthumb 37.5782 -56.4299
lclavicle 3.23025e-015 3.73715e-014
lhumerus -58.0439 38.7833 51.8175
lradius 25.5972
lwrist -22.8824
lhand -8.33929 -13.0745
lfingers 7.12502
lthumb 17.5823 16.1504
rfemur -3.95696 28.1386 25.3744
rtibia 0.393924
rfoot -13.9664 -32.702
rtoes 8.35176
lfemur 2.92022 -48.1154 -8.87751
ltibia -5.41759
lfoot -27.3965 58.1578
ltoes 19.2402
102
root 0.167173 17.4992 8.49794 11.2276 -0.0353662 -9.92655
lowerback -3.33524 -0.328165 5.66221
upperback -10.3989 -0.113419 3.07154
thorax -9.15477 -0.371673 0.113958
lowerneck -0.568696 -15.0176 -14.0943
upperneck 24.503 -23.0527 10.9342
head 10.9547 -11.1925 3.41223
rclavicle 1.13804e-014 -2.50469e-014
rhumerus -52.9448 -40.4187 -51.0467
rradius 24.1088
rwrist 45.1612
rhand 12.5342 -30.482
rfingers 7.12502
rthumb 37.5258 -56.4087
lclavicle 1.13804e-014 -2.50469e-014
lhumerus -57.9687 38.7314 51.9492
lradius 25.598
lwrist -22.8232
lhand -8.01294 -12.9387
lfingers 7.12502
lthumb 17.8964 16.2579
rfemur -3.98652 28.0993 25.3863
rtibia 0.409508
rfoot -13.9353 -32.6935
rtoes 8.11158
lfemur 2.87924 -48.1028 -8.81901
ltibia -5.43274
lfoot -27.2079 58.1713
ltoes 19.0967
